<svg width="144" height="118" viewBox="0 0 144 118" fill="none" xmlns="http://www.w3.org/2000/svg">
<path d="M31.406 94.4194C31.406 92.9643 31.2074 91.8944 30.81 91.2097C30.4126 90.4967 29.6179 90.1398 28.4258 90.1398H28V88.8559H45.8392C48.2517 88.8559 49.4581 89.9969 49.4581 92.2796V95.9173H48.1808C48.1808 94.1198 47.7267 92.8214 46.8184 92.0228C45.9385 91.1952 44.6187 90.7817 42.8589 90.7817H36.9409V101.695H46.3075V103.621H36.9409V117.101H31.406V94.4194ZM54.3569 94.4194C54.3569 92.9643 54.1583 91.8944 53.7609 91.2097C53.3635 90.4967 52.5688 90.1398 51.3766 90.1398H50.9509V88.8559H56.0599C57.0818 88.8559 57.8623 89.0271 58.4016 89.3695C58.9409 89.7118 59.324 90.2827 59.5511 91.0813C59.7782 91.8516 59.8917 92.9643 59.8917 94.4194V115.175H74.5805V117.101H54.3569V94.4194ZM88.2235 117.957C85.4698 117.957 83.0148 117.301 80.8579 115.989C78.7291 114.676 77.0824 112.879 75.9191 110.596C74.7552 108.314 74.1735 105.775 74.1735 102.979C74.1735 100.182 74.7552 97.6436 75.9191 95.3609C77.0824 93.0782 78.7291 91.2808 80.8579 89.9686C83.0148 88.6564 85.4698 88 88.2235 88C90.9764 88 93.4177 88.6564 95.5464 89.9686C97.6752 91.2808 99.3212 93.0782 100.485 95.3609C101.648 97.6436 102.231 100.182 102.231 102.979C102.231 105.775 101.648 108.314 100.485 110.596C99.3212 112.879 97.6752 114.676 95.5464 115.989C93.4177 117.301 90.9764 117.957 88.2235 117.957ZM88.2235 116.031C90.8061 116.031 92.8072 114.904 94.2266 112.65C95.6453 110.368 96.3554 107.144 96.3554 102.979C96.3554 98.8129 95.6453 95.6032 94.2266 93.3495C92.8072 91.0668 90.8061 89.9258 88.2235 89.9258C85.6401 89.9258 83.639 91.0668 82.2203 93.3495C80.829 95.6032 80.1341 98.8129 80.1341 102.979C80.1341 107.144 80.829 110.368 82.2203 112.65C83.639 114.904 85.6401 116.031 88.2235 116.031ZM105.879 93.863C105.255 92.2941 104.616 91.1814 103.963 90.525C103.31 89.8685 102.544 89.4834 101.664 89.3695V88.5135L103.453 88.428C105.354 88.428 107.014 88.7848 108.434 89.4979C109.853 90.1826 111.003 91.6377 111.882 93.863L117.63 108.628L121.462 97.6719L119.972 93.863C119.348 92.3224 118.666 91.2242 117.928 90.5678C117.219 89.883 116.395 89.4834 115.459 89.3695V88.5135L117.119 88.428C119.021 88.428 120.681 88.7848 122.101 89.4979C123.52 90.2109 124.67 91.6659 125.549 93.863L131.638 109.441L138.918 88.8559H140.962L130.871 117.486H129.168L122.612 100.71L116.779 117.486H115.076L105.879 93.863Z" fill="white"/>
<path d="M17.5103 116.703L16.3038 115.49C16.3038 115.533 16.0286 115.713 15.4782 116.032C14.9491 116.352 14.2717 116.65 13.4462 116.926C12.6418 117.202 11.774 117.341 10.8426 117.341C8.09081 117.341 6.09048 116.883 4.84157 115.969C3.61386 115.054 3 113.862 3 112.394C3 111.075 3.44452 109.937 4.33355 108.979C5.22259 108.001 6.45028 107.107 8.0167 106.298C7.27581 105.639 6.50324 104.745 5.69886 103.617C4.89447 102.468 4.49231 101.255 4.49231 99.9788C4.49231 98.4041 5.05322 97.1811 6.17512 96.3085C7.29703 95.4359 8.85284 95 10.8426 95C12.7265 95 14.1764 95.404 15.1925 96.2128C16.2085 97.0216 16.7165 98.1067 16.7165 99.4682C16.7165 100.681 16.272 101.809 15.383 102.851C14.4939 103.873 13.298 104.873 11.7951 105.851L17.6691 112.234C18.2406 111.596 18.8756 110.734 19.5741 109.649C19.807 109.309 20.061 108.883 20.3362 108.373L21.5427 109.171C21.3522 109.638 21.1194 110.096 20.8442 110.543C20.2092 111.628 19.5106 112.586 18.7486 113.415L21.8285 116.703H17.5103ZM10.8426 96.2766C10.0805 96.2766 9.51961 96.553 9.15974 97.1064C8.79987 97.6599 8.61997 98.6173 8.61997 99.9788C8.61997 101.681 9.28675 103.202 10.6203 104.543C11.3612 103.862 11.9221 103.149 12.3031 102.404C12.7053 101.638 12.9064 100.766 12.9064 99.7873C12.9064 98.5745 12.6947 97.6918 12.2714 97.1383C11.8692 96.5639 11.3929 96.2766 10.8426 96.2766ZM14.2082 115.235C14.5892 115.022 14.9702 114.745 15.3512 114.405C14.7586 113.724 14.2082 113.117 13.7002 112.586C13.1921 112.054 12.737 111.564 12.3349 111.117L9.28675 107.83C7.84733 109.107 7.12766 110.522 7.12766 112.075C7.12766 113.309 7.46632 114.288 8.1437 115.011C8.82109 115.713 9.81591 116.064 11.1283 116.064C12.2079 116.064 13.2345 115.788 14.2082 115.235Z" fill="white"/>
<path d="M10.1243 71.6796L0 0H10.9167L16.8152 46.459L24.2103 0.176986H33.1021L40.6733 46.459L46.4838 0H57.2244L47.2762 71.6796H36.7117L28.7883 23.6277L20.9529 71.6796H10.1243ZM65.3163 71.6796V0H95.2494V9.20331H78.3462V29.8223H91.6399V38.9371H78.3462V62.6533H95.4255V71.6796H65.3163ZM102.973 71.6796V0H120.492C123.662 0 126.509 0.295002 129.032 0.884933C131.615 1.47486 133.816 2.47781 135.635 3.89371C137.513 5.25063 138.951 7.10899 139.949 9.46879C140.947 11.8286 141.445 14.8079 141.445 18.4066C141.445 21.2974 141.035 23.7752 140.213 25.8401C139.45 27.9049 138.306 29.5568 136.779 30.7957C135.253 31.9756 133.346 32.7721 131.057 33.185C133.874 33.657 136.193 34.6599 138.012 36.1938C139.89 37.6687 141.269 39.6155 142.15 42.0344C143.088 44.4532 143.558 47.3735 143.558 50.7952C143.558 54.2169 143.118 57.2552 142.238 59.91C141.416 62.5061 140.154 64.6887 138.452 66.4585C136.809 68.1696 134.725 69.4673 132.201 70.3522C129.736 71.2372 126.831 71.6796 123.486 71.6796H102.973ZM116.002 62.4763H120.933C124.865 62.4763 127.535 61.5324 128.944 59.6445C130.353 57.6977 131.057 54.7184 131.057 50.7067C131.057 47.8159 130.705 45.4856 130 43.7157C129.355 41.8869 128.24 40.53 126.655 39.645C125.129 38.7601 123.075 38.3176 120.492 38.3176H116.002V62.4763ZM116.002 29.2913H120.404C122.987 29.2913 124.982 28.9078 126.391 28.1409C127.799 27.374 128.768 26.194 129.296 24.6012C129.883 23.0083 130.177 21.0025 130.177 18.5836C130.177 16.0468 129.736 14.1 128.856 12.743C128.034 11.3272 126.773 10.3832 125.07 9.91126C123.368 9.3803 121.197 9.11482 118.556 9.11482H116.002V29.2913Z" fill="white"/>
</svg>
