<svg width="70" height="57" viewBox="0 0 70 57" fill="none" xmlns="http://www.w3.org/2000/svg">
<path d="M16.038 45.4218C16.038 44.7336 15.9431 44.2276 15.7533 43.9038C15.5634 43.5665 15.1838 43.3978 14.6143 43.3978H14.4109V42.7905H22.933C24.0856 42.7905 24.6619 43.3302 24.6619 44.4098V46.1302H24.0517C24.0517 45.2801 23.8348 44.6661 23.4008 44.2883C22.9805 43.8969 22.35 43.7014 21.5093 43.7014H18.6821V48.8627H23.1568V49.7735H18.6821V56.1493H16.038V45.4218ZM27.0022 45.4218C27.0022 44.7336 26.9073 44.2276 26.7174 43.9038C26.5276 43.5665 26.1479 43.3978 25.5784 43.3978H25.375V42.7905H27.8157C28.3039 42.7905 28.6768 42.8715 28.9344 43.0334C29.192 43.1954 29.3751 43.4653 29.4835 43.8431C29.592 44.2074 29.6463 44.7336 29.6463 45.4218V55.2385H36.6634V56.1493H27.0022V45.4218ZM43.1809 56.5541C41.8654 56.5541 40.6926 56.2436 39.6622 55.623C38.6453 55.0024 37.8586 54.1523 37.3029 53.0727C36.7468 51.9931 36.469 50.7924 36.469 49.4699C36.469 48.1474 36.7468 46.9467 37.3029 45.8671C37.8586 44.7875 38.6453 43.9374 39.6622 43.3168C40.6926 42.6962 41.8654 42.3857 43.1809 42.3857C44.4961 42.3857 45.6623 42.6962 46.6793 43.3168C47.6962 43.9374 48.4826 44.7875 49.0386 45.8671C49.5943 46.9467 49.8725 48.1474 49.8725 49.4699C49.8725 50.7924 49.5943 51.9931 49.0386 53.0727C48.4826 54.1523 47.6962 55.0024 46.6793 55.623C45.6623 56.2436 44.4961 56.5541 43.1809 56.5541ZM43.1809 55.6433C44.4147 55.6433 45.3707 55.1101 46.0488 54.0443C46.7265 52.9647 47.0657 51.4401 47.0657 49.4699C47.0657 47.4997 46.7265 45.9817 46.0488 44.9158C45.3707 43.8362 44.4147 43.2966 43.1809 43.2966C41.9468 43.2966 40.9908 43.8362 40.3131 44.9158C39.6484 45.9817 39.3165 47.4997 39.3165 49.4699C39.3165 51.4401 39.6484 52.9647 40.3131 54.0443C40.9908 55.1101 41.9468 55.6433 43.1809 55.6433ZM51.6155 45.1587C51.3173 44.4167 51.0122 43.8904 50.7002 43.5799C50.3883 43.2695 50.0221 43.0873 49.6019 43.0334V42.6286L50.4562 42.5881C51.3645 42.5881 52.1578 42.7569 52.8359 43.0942C53.514 43.418 54.0631 44.1062 54.4833 45.1587L57.2291 52.1417L59.0597 46.9601L58.3478 45.1587C58.0496 44.43 57.7242 43.9106 57.3715 43.6002C57.0326 43.2763 56.6393 43.0873 56.1918 43.0334V42.6286L56.9851 42.5881C57.8934 42.5881 58.6867 42.7569 59.3648 43.0942C60.0429 43.4314 60.592 44.1196 61.0122 45.1587L63.9208 52.5262L67.3988 42.7905H68.375L63.5546 56.3314H62.7411L59.6088 48.3972L56.8224 56.3314H56.0088L51.6155 45.1587Z" fill="url(#paint0_linear_230_681)"/>
<path d="M9.45753 55.8053L8.88113 55.2318C8.88113 55.252 8.74969 55.3374 8.48676 55.4884C8.23396 55.6393 7.91036 55.7803 7.51599 55.911C7.13172 56.0417 6.71714 56.1072 6.27219 56.1072C4.95762 56.1072 4.00202 55.8908 3.40539 55.4582C2.81889 55.0256 2.52563 54.4619 2.52563 53.7676C2.52563 53.1435 2.73799 52.6053 3.1627 52.1525C3.58741 51.6897 4.17391 51.267 4.92222 50.8845C4.56828 50.5727 4.19921 50.15 3.81494 49.6166C3.43066 49.0732 3.23854 48.4996 3.23854 47.8958C3.23854 47.151 3.5065 46.5726 4.04246 46.1599C4.57842 45.7472 5.32166 45.541 6.27219 45.541C7.17219 45.541 7.86486 45.7321 8.35024 46.1146C8.83563 46.4971 9.07832 47.0103 9.07832 47.6543C9.07832 48.2279 8.86596 48.7613 8.44125 49.2543C8.01654 49.7373 7.44522 50.2104 6.72724 50.6732L9.53337 53.6921C9.8064 53.3902 10.1098 52.9827 10.4435 52.4694C10.5547 52.3085 10.6761 52.1072 10.8075 51.8657L11.3839 52.243C11.2929 52.4643 11.1816 52.6808 11.0502 52.8921C10.7468 53.4053 10.4131 53.8581 10.0491 54.2506L11.5204 55.8053H9.45753ZM6.27219 46.1448C5.90815 46.1448 5.64019 46.2755 5.46828 46.5373C5.29636 46.799 5.21042 47.2519 5.21042 47.8958C5.21042 48.7009 5.52895 49.4203 6.16602 50.0543C6.51995 49.7322 6.78791 49.3953 6.96993 49.043C7.16205 48.6807 7.25813 48.268 7.25813 47.8052C7.25813 47.2316 7.15702 46.8141 6.95476 46.5524C6.76264 46.2807 6.53512 46.1448 6.27219 46.1448ZM7.88003 55.111C8.06205 55.0105 8.24407 54.8794 8.42608 54.7185C8.14296 54.3964 7.88003 54.1096 7.63734 53.8581C7.39464 53.6067 7.17722 53.3751 6.9851 53.1638L5.52895 51.609C4.84131 52.2128 4.49751 52.8821 4.49751 53.6166C4.49751 54.2002 4.65929 54.6633 4.98289 55.0053C5.30649 55.3374 5.78174 55.5035 6.40871 55.5035C6.92443 55.5035 7.41488 55.3727 7.88003 55.111Z" fill="#003785"/>
<path d="M5.76727 34.5359L0.930664 0.634766H6.14579L8.96363 22.6077L12.4965 0.718472H16.7443L20.3612 22.6077L23.137 0.634766H28.268L23.5155 34.5359H18.4686L14.6834 11.8096L10.9403 34.5359H5.76727ZM32.1337 34.5359V0.634766H46.4334V4.9875H38.3583V14.7393H44.709V19.0502H38.3583V30.2668H46.5175V34.5359H32.1337ZM50.123 34.5359V0.634766H58.4925C60.0065 0.634766 61.3665 0.774288 62.572 1.0533C63.8058 1.33231 64.8573 1.80666 65.7263 2.47631C66.6237 3.11807 67.3104 3.99699 67.7872 5.11306C68.2639 6.22913 68.5021 7.63822 68.5021 9.34024C68.5021 10.7074 68.306 11.8793 67.9133 12.8559C67.5489 13.8325 67.0022 14.6137 66.2731 15.1997C65.544 15.7577 64.6328 16.1344 63.5394 16.3297C64.8852 16.553 65.9928 17.0273 66.8619 17.7527C67.7592 18.4503 68.418 19.371 68.8386 20.515C69.2871 21.659 69.5115 23.0402 69.5115 24.6585C69.5115 26.2768 69.3012 27.7138 68.8807 28.9694C68.488 30.1972 67.8854 31.2295 67.0722 32.0665C66.2872 32.8758 65.2916 33.4895 64.0861 33.9081C62.9085 34.3266 61.5206 34.5359 59.9224 34.5359H50.123ZM56.3475 30.1831H58.7028C60.5812 30.1831 61.8571 29.7367 62.53 28.8438C63.2029 27.9231 63.5394 26.514 63.5394 24.6167C63.5394 23.2495 63.3711 22.1473 63.0347 21.3103C62.7261 20.4453 62.1935 19.8035 61.4365 19.385C60.7074 18.9665 59.7263 18.7572 58.4925 18.7572H56.3475V30.1831ZM56.3475 14.4882H58.4504C59.6842 14.4882 60.6374 14.3068 61.3103 13.9441C61.9832 13.5814 62.4459 13.0233 62.6982 12.27C62.9785 11.5166 63.1188 10.5679 63.1188 9.42394C63.1188 8.22416 62.9085 7.30339 62.4879 6.66163C62.0953 5.99198 61.4927 5.54556 60.6794 5.32233C59.8662 5.07121 58.8289 4.94565 57.5672 4.94565H56.3475V14.4882Z" fill="url(#paint1_linear_230_681)"/>
<defs>
<linearGradient id="paint0_linear_230_681" x1="11.684" y1="43.5113" x2="14.5487" y2="57.5721" gradientUnits="userSpaceOnUse">
<stop stop-color="#75D0DC"/>
<stop offset="1" stop-color="#3CB2C3"/>
</linearGradient>
<linearGradient id="paint1_linear_230_681" x1="-31.7438" y1="-21.5543" x2="44.9853" y2="44.6823" gradientUnits="userSpaceOnUse">
<stop offset="0.319832" stop-color="#003785"/>
<stop offset="0.898958" stop-color="#004CB8"/>
</linearGradient>
</defs>
</svg>
