<svg width="1280" height="350" viewBox="0 0 1280 350" fill="none" xmlns="http://www.w3.org/2000/svg">
<g clip-path="url(#clip0_131_548)">
<rect width="1280" height="4304" transform="translate(0 -3138)" fill="white"/>
<path d="M0 -907.843C535.565 -1353.13 734.467 -787.068 1280.36 -845.767L1295 148H0V-907.843Z" fill="url(#paint0_linear_131_548)"/>
<path d="M451.076 121.712C447.282 121.712 444.297 120.966 442.123 119.474C439.992 117.982 438.499 115.957 437.647 113.399C436.794 110.798 436.368 107.814 436.368 104.446V85.9642C436.368 82.4256 436.794 79.356 437.647 76.7554C438.499 74.1548 439.992 72.151 442.123 70.7441C444.297 69.3372 447.282 68.6337 451.076 68.6337C454.657 68.6337 457.45 69.2519 459.454 70.4883C461.5 71.682 462.95 73.4087 463.802 75.6682C464.655 77.9278 465.081 80.5498 465.081 83.5341V87.8827H456V83.4062C456 81.9567 455.915 80.635 455.745 79.4413C455.617 78.2476 455.212 77.3096 454.529 76.6275C453.89 75.9027 452.76 75.5403 451.14 75.5403C449.52 75.5403 448.326 75.924 447.559 76.6914C446.834 77.4162 446.365 78.4181 446.152 79.6971C445.939 80.9335 445.832 82.3404 445.832 83.9178V106.428C445.832 108.304 445.981 109.86 446.28 111.097C446.578 112.29 447.111 113.207 447.879 113.846C448.689 114.443 449.776 114.742 451.14 114.742C452.718 114.742 453.826 114.379 454.466 113.655C455.148 112.887 455.574 111.885 455.745 110.649C455.915 109.413 456 108.027 456 106.492V101.824H465.081V105.981C465.081 109.05 464.676 111.779 463.866 114.166C463.056 116.511 461.628 118.366 459.582 119.73C457.578 121.051 454.743 121.712 451.076 121.712ZM478.257 121.584C476.595 121.584 475.167 121.158 473.973 120.305C472.779 119.41 471.862 118.302 471.223 116.98C470.583 115.616 470.264 114.209 470.264 112.759C470.264 110.457 470.69 108.517 471.543 106.94C472.395 105.362 473.525 104.041 474.932 102.975C476.339 101.909 477.938 100.992 479.728 100.225C481.519 99.415 483.331 98.6902 485.164 98.0507V94.8532C485.164 93.7874 485.079 92.8921 484.908 92.1673C484.78 91.4426 484.503 90.8883 484.077 90.5046C483.693 90.1209 483.075 89.9291 482.222 89.9291C481.498 89.9291 480.901 90.0996 480.432 90.4407C480.005 90.7818 479.686 91.272 479.472 91.9115C479.302 92.5084 479.195 93.2119 479.153 94.0219L479.025 96.2601L470.775 95.9404C470.903 91.6771 471.948 88.5435 473.909 86.5397C475.913 84.4933 478.94 83.4701 482.99 83.4701C486.699 83.4701 489.385 84.4933 491.047 86.5397C492.753 88.5861 493.605 91.3573 493.605 94.8532V111.928C493.605 113.292 493.627 114.529 493.669 115.637C493.755 116.745 493.84 117.747 493.925 118.643C494.053 119.538 494.16 120.327 494.245 121.009H486.443C486.315 120.156 486.145 119.197 485.931 118.131C485.761 117.023 485.633 116.213 485.548 115.701C485.121 117.193 484.311 118.557 483.118 119.794C481.924 120.987 480.304 121.584 478.257 121.584ZM481.455 115.125C482.009 115.125 482.521 114.997 482.99 114.742C483.501 114.443 483.949 114.102 484.333 113.718C484.716 113.335 484.993 112.994 485.164 112.695V102.399C484.226 102.954 483.331 103.508 482.478 104.062C481.668 104.616 480.943 105.234 480.304 105.917C479.707 106.556 479.238 107.26 478.897 108.027C478.598 108.794 478.449 109.69 478.449 110.713C478.449 112.077 478.705 113.164 479.217 113.974C479.771 114.742 480.517 115.125 481.455 115.125ZM500.585 121.009V69.2093H509.219V121.009H500.585ZM516.698 121.009V69.2093H525.331V121.009H516.698ZM558.465 121.456C556.12 121.456 554.265 121.073 552.901 120.305C551.579 119.538 550.642 118.429 550.087 116.98C549.533 115.53 549.256 113.804 549.256 111.8V89.8012H545.547V84.0457H549.256V72.9823H558.017V84.0457H563.645V89.8012H558.017V111.033C558.017 112.312 558.294 113.228 558.848 113.782C559.403 114.294 560.234 114.55 561.342 114.55C561.811 114.55 562.259 114.529 562.685 114.486C563.154 114.443 563.602 114.401 564.028 114.358V121.009C563.304 121.094 562.451 121.179 561.47 121.265C560.532 121.392 559.531 121.456 558.465 121.456ZM580.21 121.584C577.524 121.584 575.307 121.094 573.559 120.113C571.811 119.09 570.489 117.619 569.594 115.701C568.741 113.782 568.315 111.459 568.315 108.73V96.3241C568.315 93.5956 568.741 91.272 569.594 89.3535C570.489 87.435 571.811 85.9855 573.559 85.0049C575.307 83.9817 577.524 83.4701 580.21 83.4701C582.896 83.4701 585.113 83.9817 586.861 85.0049C588.651 85.9855 589.973 87.435 590.825 89.3535C591.721 91.272 592.168 93.5956 592.168 96.3241V108.73C592.168 111.459 591.721 113.782 590.825 115.701C589.973 117.619 588.651 119.09 586.861 120.113C585.113 121.094 582.896 121.584 580.21 121.584ZM580.274 115.573C581.254 115.573 581.979 115.296 582.448 114.742C582.917 114.187 583.215 113.441 583.343 112.503C583.471 111.523 583.535 110.457 583.535 109.306V95.7485C583.535 94.5974 583.471 93.5529 583.343 92.615C583.215 91.6771 582.917 90.931 582.448 90.3767C581.979 89.7799 581.254 89.4814 580.274 89.4814C579.293 89.4814 578.568 89.7799 578.099 90.3767C577.63 90.931 577.311 91.6771 577.14 92.615C577.012 93.5529 576.948 94.5974 576.948 95.7485V109.306C576.948 110.457 577.012 111.523 577.14 112.503C577.311 113.441 577.63 114.187 578.099 114.742C578.568 115.296 579.293 115.573 580.274 115.573ZM620.833 121.584C619.171 121.584 617.743 121.158 616.549 120.305C615.355 119.41 614.438 118.302 613.799 116.98C613.159 115.616 612.84 114.209 612.84 112.759C612.84 110.457 613.266 108.517 614.119 106.94C614.971 105.362 616.101 104.041 617.508 102.975C618.915 101.909 620.514 100.992 622.304 100.225C624.095 99.415 625.907 98.6902 627.74 98.0507V94.8532C627.74 93.7874 627.655 92.8921 627.484 92.1673C627.356 91.4426 627.079 90.8883 626.653 90.5046C626.269 90.1209 625.651 89.9291 624.798 89.9291C624.074 89.9291 623.477 90.0996 623.008 90.4407C622.581 90.7818 622.262 91.272 622.049 91.9115C621.878 92.5084 621.771 93.2119 621.729 94.0219L621.601 96.2601L613.351 95.9404C613.479 91.6771 614.524 88.5435 616.485 86.5397C618.489 84.4933 621.516 83.4701 625.566 83.4701C629.275 83.4701 631.961 84.4933 633.623 86.5397C635.329 88.5861 636.181 91.3573 636.181 94.8532V111.928C636.181 113.292 636.203 114.529 636.245 115.637C636.331 116.745 636.416 117.747 636.501 118.643C636.629 119.538 636.736 120.327 636.821 121.009H629.019C628.891 120.156 628.721 119.197 628.507 118.131C628.337 117.023 628.209 116.213 628.124 115.701C627.697 117.193 626.887 118.557 625.694 119.794C624.5 120.987 622.88 121.584 620.833 121.584ZM624.031 115.125C624.585 115.125 625.097 114.997 625.566 114.742C626.077 114.443 626.525 114.102 626.909 113.718C627.292 113.335 627.57 112.994 627.74 112.695V102.399C626.802 102.954 625.907 103.508 625.054 104.062C624.244 104.616 623.519 105.234 622.88 105.917C622.283 106.556 621.814 107.26 621.473 108.027C621.175 108.794 621.025 109.69 621.025 110.713C621.025 112.077 621.281 113.164 621.793 113.974C622.347 114.742 623.093 115.125 624.031 115.125ZM653.713 121.584C650.857 121.584 648.555 121.051 646.807 119.986C645.101 118.877 643.844 117.321 643.034 115.317C642.266 113.271 641.882 110.862 641.882 108.091V96.9636C641.882 94.1072 642.266 91.6771 643.034 89.6733C643.844 87.6695 645.123 86.1347 646.871 85.0689C648.619 84.0031 650.899 83.4701 653.713 83.4701C656.357 83.4701 658.509 83.8965 660.172 84.7491C661.878 85.5592 663.114 86.8169 663.881 88.5222C664.649 90.1849 665.032 92.2952 665.032 94.8532V97.9228H656.847V94.6614C656.847 93.3824 656.74 92.3805 656.527 91.6557C656.357 90.8883 656.037 90.3554 655.568 90.057C655.099 89.7159 654.481 89.5454 653.713 89.5454C652.946 89.5454 652.328 89.7586 651.859 90.1849C651.39 90.5686 651.049 91.2081 650.835 92.1034C650.665 92.9987 650.58 94.2351 650.58 95.8125V109.37C650.58 111.757 650.835 113.377 651.347 114.23C651.859 115.04 652.669 115.445 653.777 115.445C654.63 115.445 655.269 115.253 655.696 114.87C656.165 114.486 656.463 113.932 656.591 113.207C656.762 112.439 656.847 111.523 656.847 110.457V106.492H665.032V110.009C665.032 112.482 664.627 114.592 663.817 116.34C663.05 118.088 661.814 119.41 660.108 120.305C658.446 121.158 656.314 121.584 653.713 121.584ZM681.431 121.456C679.086 121.456 677.232 121.073 675.867 120.305C674.546 119.538 673.608 118.429 673.054 116.98C672.499 115.53 672.222 113.804 672.222 111.8V89.8012H668.513V84.0457H672.222V72.9823H680.983V84.0457H686.611V89.8012H680.983V111.033C680.983 112.312 681.261 113.228 681.815 113.782C682.369 114.294 683.2 114.55 684.309 114.55C684.778 114.55 685.225 114.529 685.652 114.486C686.121 114.443 686.568 114.401 686.995 114.358V121.009C686.27 121.094 685.417 121.179 684.437 121.265C683.499 121.392 682.497 121.456 681.431 121.456ZM692.241 121.009V84.0457H700.938V121.009H692.241ZM692.241 78.1623V70.9359H700.938V78.1623H692.241ZM719.039 121.584C716.353 121.584 714.136 121.094 712.388 120.113C710.64 119.09 709.318 117.619 708.423 115.701C707.57 113.782 707.144 111.459 707.144 108.73V96.3241C707.144 93.5956 707.57 91.272 708.423 89.3535C709.318 87.435 710.64 85.9855 712.388 85.0049C714.136 83.9817 716.353 83.4701 719.039 83.4701C721.725 83.4701 723.942 83.9817 725.689 85.0049C727.48 85.9855 728.802 87.435 729.654 89.3535C730.55 91.272 730.997 93.5956 730.997 96.3241V108.73C730.997 111.459 730.55 113.782 729.654 115.701C728.802 117.619 727.48 119.09 725.689 120.113C723.942 121.094 721.725 121.584 719.039 121.584ZM719.103 115.573C720.083 115.573 720.808 115.296 721.277 114.742C721.746 114.187 722.044 113.441 722.172 112.503C722.3 111.523 722.364 110.457 722.364 109.306V95.7485C722.364 94.5974 722.3 93.5529 722.172 92.615C722.044 91.6771 721.746 90.931 721.277 90.3767C720.808 89.7799 720.083 89.4814 719.103 89.4814C718.122 89.4814 717.397 89.7799 716.928 90.3767C716.459 90.931 716.14 91.6771 715.969 92.615C715.841 93.5529 715.777 94.5974 715.777 95.7485V109.306C715.777 110.457 715.841 111.523 715.969 112.503C716.14 113.441 716.459 114.187 716.928 114.742C717.397 115.296 718.122 115.573 719.103 115.573ZM736.95 121.009V84.0457H745.647V87.7548C746.969 86.4758 748.354 85.4526 749.804 84.6852C751.296 83.8752 752.895 83.4701 754.6 83.4701C756.135 83.4701 757.35 83.8538 758.245 84.6212C759.14 85.346 759.801 86.3266 760.227 87.5629C760.654 88.7993 760.867 90.1423 760.867 91.5918V121.009H752.17V93.3184C752.17 92.21 751.999 91.3573 751.658 90.7604C751.317 90.1636 750.656 89.8651 749.676 89.8651C749.079 89.8651 748.418 90.0357 747.693 90.3767C747.011 90.7178 746.329 91.1441 745.647 91.6557V121.009H736.95ZM782.917 121.009V69.2093H791.614V87.5629C792.893 86.2839 794.279 85.2821 795.771 84.5573C797.305 83.8325 798.968 83.4701 800.759 83.4701C802.251 83.4701 803.445 83.8538 804.34 84.6212C805.235 85.346 805.896 86.3266 806.322 87.5629C806.749 88.7993 806.962 90.1423 806.962 91.5918V121.009H798.265V93.3184C798.265 92.21 798.094 91.3573 797.753 90.7604C797.412 90.1636 796.751 89.8651 795.771 89.8651C795.174 89.8651 794.492 90.0357 793.724 90.3767C793 90.7178 792.296 91.1655 791.614 91.7197V121.009H782.917ZM824.519 121.584C821.748 121.584 819.488 121.073 817.74 120.05C815.992 118.984 814.692 117.449 813.839 115.445C813.029 113.399 812.624 110.947 812.624 108.091V96.9636C812.624 94.0219 813.029 91.5492 813.839 89.5454C814.692 87.5416 815.992 86.0281 817.74 85.0049C819.531 83.9817 821.79 83.4701 824.519 83.4701C827.46 83.4701 829.741 84.0244 831.361 85.1328C833.024 86.2413 834.196 87.8614 834.879 89.993C835.603 92.0821 835.966 94.6401 835.966 97.667V102.911H821.257V110.201C821.257 111.395 821.364 112.376 821.577 113.143C821.833 113.91 822.216 114.465 822.728 114.806C823.24 115.147 823.858 115.317 824.583 115.317C825.35 115.317 825.968 115.147 826.437 114.806C826.906 114.422 827.247 113.889 827.46 113.207C827.674 112.482 827.78 111.587 827.78 110.521V107.451H835.902V109.945C835.902 113.697 834.964 116.575 833.088 118.579C831.212 120.582 828.356 121.584 824.519 121.584ZM821.257 98.6263H827.78V95.109C827.78 93.83 827.674 92.8068 827.46 92.0394C827.247 91.2294 826.906 90.6539 826.437 90.3128C825.968 89.9291 825.307 89.7372 824.455 89.7372C823.687 89.7372 823.069 89.9291 822.6 90.3128C822.131 90.6965 821.79 91.336 821.577 92.2313C821.364 93.1266 821.257 94.4056 821.257 96.0683V98.6263ZM842.059 121.009V84.0457H850.757V89.7372C852.036 87.5629 853.315 86.0068 854.594 85.0689C855.873 84.0883 857.28 83.598 858.814 83.598C859.07 83.598 859.283 83.6194 859.454 83.662C859.667 83.662 859.902 83.6833 860.157 83.7259V92.7429C859.646 92.5297 859.07 92.3592 858.431 92.2313C857.834 92.0608 857.216 91.9755 856.576 91.9755C855.425 91.9755 854.381 92.2526 853.443 92.8068C852.505 93.3611 851.609 94.2777 850.757 95.5567V121.009H842.059ZM875.604 121.584C872.833 121.584 870.573 121.073 868.825 120.05C867.077 118.984 865.777 117.449 864.924 115.445C864.114 113.399 863.709 110.947 863.709 108.091V96.9636C863.709 94.0219 864.114 91.5492 864.924 89.5454C865.777 87.5416 867.077 86.0281 868.825 85.0049C870.616 83.9817 872.875 83.4701 875.604 83.4701C878.545 83.4701 880.826 84.0244 882.446 85.1328C884.109 86.2413 885.282 87.8614 885.964 89.993C886.688 92.0821 887.051 94.6401 887.051 97.667V102.911H872.342V110.201C872.342 111.395 872.449 112.376 872.662 113.143C872.918 113.91 873.302 114.465 873.813 114.806C874.325 115.147 874.943 115.317 875.668 115.317C876.435 115.317 877.053 115.147 877.522 114.806C877.991 114.422 878.332 113.889 878.545 113.207C878.759 112.482 878.865 111.587 878.865 110.521V107.451H886.987V109.945C886.987 113.697 886.049 116.575 884.173 118.579C882.297 120.582 879.441 121.584 875.604 121.584ZM872.342 98.6263H878.865V95.109C878.865 93.83 878.759 92.8068 878.545 92.0394C878.332 91.2294 877.991 90.6539 877.522 90.3128C877.053 89.9291 876.392 89.7372 875.54 89.7372C874.772 89.7372 874.154 89.9291 873.685 90.3128C873.216 90.6965 872.875 91.336 872.662 92.2313C872.449 93.1266 872.342 94.4056 872.342 96.0683V98.6263Z" fill="black"/>
<path d="M0 -822.365C529.362 -1301.61 740.426 -759.19 1280 -822.365V314C780.129 314 499.871 314 0 314V-822.365Z" fill="url(#paint1_linear_131_548)"/>
<path d="M0 192.704C352.611 -168.879 495.039 192.703 1039.86 192.704C1584.68 192.704 1039.86 726 1039.86 726H0V192.704Z" fill="url(#paint2_linear_131_548)"/>
<path d="M-1 241.431C351.887 -92.5383 494.425 241.43 1039.67 241.431C1584.91 241.431 1039.67 734 1039.67 734H-1V241.431Z" fill="white"/>
</g>
<defs>
<linearGradient id="paint0_linear_131_548" x1="-538.105" y1="-1614.6" x2="1328.93" y2="-718.7" gradientUnits="userSpaceOnUse">
<stop offset="0.315529" stop-color="#0043A3"/>
<stop offset="0.898958" stop-color="#3387FF"/>
</linearGradient>
<linearGradient id="paint1_linear_131_548" x1="255" y1="-110" x2="980" y2="-110" gradientUnits="userSpaceOnUse">
<stop stop-color="#75D0DC"/>
<stop offset="0.5625" stop-color="#55BFCE"/>
<stop offset="1" stop-color="#3CB2C3"/>
</linearGradient>
<linearGradient id="paint2_linear_131_548" x1="-532.703" y1="-270.129" x2="799.753" y2="849.873" gradientUnits="userSpaceOnUse">
<stop offset="0.315529" stop-color="#0043A3"/>
<stop offset="0.898958" stop-color="#3387FF"/>
</linearGradient>
<clipPath id="clip0_131_548">
<rect width="1280" height="4304" fill="white" transform="translate(0 -3138)"/>
</clipPath>
</defs>
</svg>
